<?xml version="1.0" encoding="UTF-8"?> <svg xmlns="http://www.w3.org/2000/svg" width="178" height="50" viewBox="0 0 178 50" fill="none"><g clip-path="url(#clip0)"><path d="M53.872 27.3973C51.2087 27.3973 49.1279 25.9259 49.1279 22.7912V16.1044H47.2155V13.3838H49.1279V9.9259H52.1885V13.3838H55.1953V16.1044H52.1885V22.2895C52.1885 24.0101 52.936 24.6464 54.5185 24.6464C55.0759 24.6474 55.6294 24.5529 56.1549 24.367V27.0875C55.4149 27.3102 54.6445 27.4148 53.872 27.3973Z" fill="#111111"></path><path d="M59.2963 6.44775H62.3468V15.2727C63.1784 13.8855 64.7609 13.1077 66.5656 13.1077C69.7845 13.1077 71.8653 15.3838 71.8653 18.9057V27.2727H68.8114V19.404C68.8114 17.2121 67.7037 15.8821 65.9259 15.8821C63.9057 15.8821 62.3468 17.4646 62.3468 20.4309V27.2727H59.2963V6.44775Z" fill="#111111"></path><path d="M82.1347 27.5354C78 27.5354 75.0303 24.4815 75.0303 20.3199C75.0303 16.2155 77.8889 13.1078 82.1616 13.1078C86.4343 13.1078 89.3771 16.3536 89.0976 21.0708H78.0572C78.1683 23.1785 79.7778 24.8452 82.2458 24.8452C83.771 24.8452 85.1043 24.2324 85.7407 22.9024H88.9326C88.1549 25.5085 85.6599 27.5354 82.1347 27.5354ZM78.1683 18.9058H85.8249C85.3535 16.66 83.771 15.66 82.0808 15.66C81.1428 15.6218 80.2239 15.9324 79.5014 16.5318C78.7789 17.1312 78.304 17.9769 78.1683 18.9058V18.9058Z" fill="#111111"></path><path d="M103.997 28.3401C104.552 29.9765 105.882 30.724 107.825 30.724C109.906 30.724 111.599 29.3367 111.599 26.6465V25.0101C110.768 26.2324 109.074 27.1751 107.158 27.1751C103.414 27.1751 100.502 24.0674 100.502 20.128C100.502 16.1886 103.414 13.1078 107.158 13.1078C109.074 13.1078 110.768 14.0236 111.599 15.2425V13.3839H114.65V26.3974C114.65 31.2256 111.448 33.3334 107.744 33.3334C103.939 33.3334 101.347 31.2256 101.01 28.3401H103.997ZM107.7 15.8822C105.343 15.8822 103.566 17.6566 103.566 20.128C103.566 22.5994 105.343 24.3704 107.7 24.3704C110.057 24.3704 111.835 22.596 111.835 20.128C111.835 17.66 110.071 15.8822 107.714 15.8822H107.7Z" fill="#111111"></path><path d="M118.855 13.3838H121.886V15.8551C122.152 15.0957 122.646 14.4371 123.302 13.9699C123.957 13.5028 124.741 13.2498 125.545 13.2457C125.947 13.2422 126.347 13.2794 126.741 13.3568V16.4982C126.248 16.3332 125.732 16.2491 125.212 16.2491C123.465 16.2491 121.886 17.7205 121.886 20.4949V27.2727H118.855V13.3838Z" fill="#111111"></path><path d="M135.99 13.1077C136.844 13.0972 137.689 13.2844 138.459 13.6547C139.229 14.0251 139.903 14.5684 140.428 15.2424V13.3838H143.478V27.2727H140.428V25.3973C139.903 26.0722 139.23 26.6165 138.46 26.9875C137.69 27.3585 136.845 27.546 135.99 27.5353C132.189 27.5353 129.293 24.2895 129.293 20.3198C129.293 16.3501 132.189 13.1077 135.99 13.1077ZM136.542 15.8821C134.074 15.8821 132.411 17.8249 132.411 20.3198C132.411 22.8148 134.074 24.7609 136.542 24.7609C139.01 24.7609 140.677 22.8182 140.677 20.3198C140.677 17.8215 139.014 15.8821 136.542 15.8821Z" fill="#111111"></path><path d="M147.02 13.3839H150.074V15.2425C150.842 14.1415 152.542 13.1078 154.545 13.1078C158.347 13.1078 161.232 16.3536 161.232 20.3199C161.232 24.2862 158.34 27.5354 154.545 27.5354C152.549 27.5354 150.842 26.5253 150.081 25.3973V33.0573H147.027L147.02 13.3839ZM153.983 15.8822C151.515 15.8822 149.832 17.825 149.832 20.3199C149.832 22.8149 151.515 24.761 153.99 24.761C156.465 24.761 158.125 22.8182 158.125 20.3199C158.125 17.8216 156.428 15.8822 153.983 15.8822Z" fill="#111111"></path><path d="M164.768 6.44775H167.818V15.2727C168.653 13.8855 170.232 13.1077 172.037 13.1077C175.256 13.1077 177.337 15.3838 177.337 18.9057V27.2727H174.283V19.404C174.283 17.2121 173.175 15.8821 171.397 15.8821C169.377 15.8821 167.818 17.4646 167.818 20.4309V27.2727H164.768V6.44775Z" fill="#111111"></path><path d="M36.1112 5.55556C37.6453 5.55556 38.8889 4.3119 38.8889 2.77778C38.8889 1.24365 37.6453 0 36.1112 0C34.577 0 33.3334 1.24365 33.3334 2.77778C33.3334 4.3119 34.577 5.55556 36.1112 5.55556Z" fill="#111111"></path><path d="M16.6667 0C13.3703 0 10.148 0.977483 7.40717 2.80884C4.66635 4.6402 2.53014 7.24317 1.26868 10.2886C0.00722135 13.334 -0.322834 16.6852 0.320253 19.9182C0.96334 23.1512 2.55069 26.1209 4.88156 28.4518C7.21244 30.7827 10.1822 32.37 13.4152 33.0131C16.6482 33.6562 19.9993 33.3261 23.0447 32.0647C26.0902 30.8032 28.6931 28.667 30.5245 25.9262C32.3559 23.1853 33.3333 19.963 33.3333 16.6667C33.3333 12.2464 31.5774 8.00716 28.4518 4.88155C25.3262 1.75595 21.0869 0 16.6667 0ZM16.6667 27.7778C14.4691 27.7778 12.3209 27.1261 10.4937 25.9052C8.66646 24.6843 7.24232 22.949 6.40135 20.9187C5.56037 18.8884 5.34034 16.6543 5.76906 14.499C6.19779 12.3437 7.25602 10.3638 8.80993 8.80992C10.3638 7.25601 12.3437 6.19778 14.499 5.76905C16.6543 5.34033 18.8884 5.56036 20.9187 6.40134C22.949 7.24231 24.6843 8.66645 25.9052 10.4937C27.1261 12.3209 27.7778 14.4691 27.7778 16.6667C27.7778 19.6135 26.6072 22.4397 24.5234 24.5234C22.4397 26.6071 19.6135 27.7778 16.6667 27.7778V27.7778Z" fill="#111111"></path><path d="M32.5185 34.1482C32.261 33.8898 31.9551 33.6848 31.6182 33.5449C31.2814 33.405 30.9202 33.333 30.5555 33.333C30.1908 33.333 29.8296 33.405 29.4927 33.5449C29.1559 33.6848 28.85 33.8898 28.5925 34.1482L17.4814 45.2593C17.2236 45.5171 17.0192 45.8231 16.8796 46.1599C16.7401 46.4967 16.6683 46.8577 16.6683 47.2222C16.6683 47.5868 16.7401 47.9478 16.8796 48.2846C17.0192 48.6214 17.2236 48.9274 17.4814 49.1852C17.7392 49.443 18.0452 49.6475 18.382 49.787C18.7188 49.9265 19.0798 49.9983 19.4444 49.9983C19.8089 49.9983 20.1699 49.9265 20.5067 49.787C20.8435 49.6475 21.1496 49.443 21.4073 49.1852L32.5185 38.0741C32.7768 37.8167 32.9818 37.5107 33.1217 37.1739C33.2616 36.837 33.3336 36.4759 33.3336 36.1111C33.3336 35.7464 33.2616 35.3852 33.1217 35.0484C32.9818 34.7115 32.7768 34.4056 32.5185 34.1482V34.1482Z" fill="#111111"></path></g><defs><clipPath id="clip0"><rect width="177.337" height="50" fill="white"></rect></clipPath></defs></svg> 